<?xml version="1.0" encoding="UTF-8" standalone="no"?>
<svg
   xmlns:dc="http://purl.org/dc/elements/1.1/"
   xmlns:cc="http://creativecommons.org/ns#"
   xmlns:rdf="http://www.w3.org/1999/02/22-rdf-syntax-ns#"
   xmlns:svg="http://www.w3.org/2000/svg"
   xmlns="http://www.w3.org/2000/svg"
   xmlns:sodipodi="http://sodipodi.sourceforge.net/DTD/sodipodi-0.dtd"
   xmlns:inkscape="http://www.inkscape.org/namespaces/inkscape"
   inkscape:version="1.0 (4035a4fb49, 2020-05-01)"
   sodipodi:docname="college-study-web-development-2.svg"
   id="svg18"
   preserveAspectRatio="xMidYMid meet"
   viewBox="800 10 200.000000 700.000000"
   height="300.000000pt"
   width="500.000000pt"
   version="1.0">
  <metadata
     id="metadata24">
    <rdf:RDF>
      <cc:Work
         rdf:about="">
        <dc:format>image/svg+xml</dc:format>
        <dc:type
           rdf:resource="http://purl.org/dc/dcmitype/StillImage" />
      </cc:Work>
    </rdf:RDF>
  </metadata>
  <defs
     id="defs22" />
  <sodipodi:namedview
     inkscape:current-layer="g16"
     inkscape:window-maximized="1"
     inkscape:window-y="-8"
     inkscape:window-x="-8"
     inkscape:cx="825.33333"
     inkscape:zoom="0.628125"
     showgrid="false"
     id="namedview20"
     inkscape:window-height="1017"
     inkscape:window-width="1920"
     inkscape:pageshadow="2"
     inkscape:pageopacity="0"
     guidetolerance="10"
     gridtolerance="10"
     objecttolerance="10"
     borderopacity="1"
     bordercolor="#666666"
     pagecolor="#ffffff" />
  <g
     id="g16"
     stroke="none"
     fill="#000000"
     transform="translate(0.000000,800.000000) scale(0.100000,-0.100000)">
    <path
       id="path2"
       d="M6905 5634 c-110 -18 -239 -68 -305 -118 -19 -15 -52 -31 -74 -37 -166 -45 -255 -234 -243 -522 9 -250 81 -436 188 -492 l26 -14 -4 42 c-3 23 0 67 5 97 9 49 8 57 -10 77 -11 11 -24 38 -29 60 -13 58 -11 244 4 273 25 50 183 78 248 45 16 -9 43 -34 59 -57 29 -40 30 -44 30 -158 0 -65 4 -142 10 -171 9 -50 59 -184 65 -177 2 2 8 53 14 115 6 61 15 131 21 156 l12 44 326 -145 c180 -80 328 -145 329 -146 1 -1 -11 -51 -28 -111 -16 -61 -29 -122 -29 -137 0 -35 35 -60 70 -51 l25 7 -24 6 c-49 11 -49 30 -2 170 59 175 55 170 130 143 39 -14 63 -18 67 -11 10 16 -4 24 -141 78 -71 29 -132 54 -135 57 -13 14 125 -9 217 -37 56 -16 107 -30 112 -30 6 0 17 13 25 29 14 26 14 30 -2 44 -30 26 -153 58 -247 64 -85 5 -92 4 -129 -21 l-39 -27 -251 87 c-138 48 -253 89 -254 90 -2 2 10 48 27 103 l31 100 43 -15 c70 -25 166 -43 277 -54 58 -5 137 -14 175 -20 39 -7 105 -9 147 -6 83 7 241 44 298 70 l35 17 -78 -3 c-56 -3 -72 -1 -55 6 85 34 130 59 181 101 32 26 57 49 55 51 -2 1 -35 -8 -72 -22 -38 -14 -73 -23 -78 -22 -5 2 14 21 42 42 48 37 102 96 148 163 l22 31 -60 -5 c-86 -8 -155 8 -432 102 -305 103 -443 136 -598 140 -63 2 -128 1 -145 -1z" />
    <path
       id="path4"
       d="M5895 4523 c-199 -11 -484 -59 -597 -99 -178 -63 -290 -155 -328 -268 -21 -63 -21 -67 -4 -101 16 -35 16 -37 -4 -57 -17 -18 -23 -19 -37 -8 -11 9 -38 11 -93 8 -135 -9 -354 -108 -469 -212 -67 -61 -87 -95 -73 -130 8 -22 3 -36 -35 -96 -65 -99 -142 -264 -161 -342 -15 -58 -15 -74 -3 -115 16 -60 82 -126 147 -149 l47 -17 0 -56 c0 -43 8 -72 33 -124 93 -190 262 -386 384 -446 58 -29 75 -33 121 -29 60 5 94 26 141 86 31 41 31 34 -6 -65 l-19 -53 -435 0 c-280 0 -434 -4 -434 -10 0 -6 177 -11 498 -12 l497 -3 0 -95 0 -95 -497 -3 c-434 -2 -498 -4 -498 -17 0 -12 -15 -15 -70 -15 -86 0 -90 -6 -90 -129 0 -115 5 -121 106 -121 l75 0 -15 -22 c-12 -16 -16 -47 -16 -106 0 -136 -58 -122 520 -122 327 0 500 3 500 10 0 7 -169 10 -488 10 -366 0 -491 3 -500 12 -7 7 -12 44 -12 95 0 72 3 84 20 93 13 7 177 9 500 8 379 -2 480 0 480 10 0 8 -22 12 -75 12 -53 0 -75 4 -75 13 0 9 -102 11 -486 9 -353 -2 -490 1 -500 9 -10 8 -14 37 -14 100 0 84 1 89 23 94 12 3 237 4 500 3 376 -2 477 0 477 10 0 8 20 12 68 12 40 0 73 5 80 12 8 8 12 48 12 113 0 112 -11 135 -63 135 l-27 0 53 83 c65 101 138 229 209 366 l53 104 221 88 c181 72 233 88 290 92 48 4 88 15 133 36 36 17 67 29 69 26 2 -2 -43 -73 -101 -157 -168 -246 -189 -299 -183 -472 2 -79 10 -131 25 -179 27 -83 27 -84 -89 -199 -63 -62 -96 -85 -171 -121 -121 -58 -217 -81 -310 -75 l-71 5 6 -38 c4 -27 2 -40 -8 -46 -29 -16 45 -177 104 -227 44 -36 90 -46 220 -46 205 0 458 40 695 109 l99 29 41 -24 c62 -36 115 -52 248 -73 220 -35 319 -44 507 -45 313 -1 484 46 566 154 23 32 25 41 21 107 -7 124 -86 243 -171 259 l-36 6 0 59 c0 127 -81 249 -208 311 -64 32 -72 33 -203 36 l-136 3 -13 42 c-19 66 -58 131 -106 178 -44 43 -46 44 -112 43 -82 0 -221 -45 -393 -127 -129 -61 -119 -47 -134 -178 l-7 -57 -97 -15 c-53 -8 -99 -13 -102 -11 -3 2 -12 35 -19 73 -24 127 0 242 78 369 78 130 381 486 398 469 4 -4 28 -102 54 -218 l46 -210 55 29 c84 45 119 66 119 73 0 3 -10 11 -22 16 -17 8 -58 87 -158 304 -73 162 -156 341 -184 399 l-50 105 -12 -75 c-8 -41 -20 -107 -29 -147 l-16 -71 -159 -67 c-91 -39 -169 -78 -182 -92 -75 -80 -119 -106 -246 -145 -69 -21 -128 -36 -130 -34 -6 6 295 599 399 785 106 191 192 325 222 346 54 37 156 7 283 -83 l71 -50 103 -231 c56 -127 106 -231 110 -231 8 0 60 137 60 157 0 6 16 30 35 53 19 23 35 49 35 57 0 20 -92 193 -102 193 -5 0 -8 -7 -8 -15 0 -8 -3 -15 -7 -15 -5 1 -61 95 -126 210 l-118 209 -52 -20 c-29 -11 -57 -25 -63 -30 -7 -5 -30 -7 -53 -3 -30 5 -41 11 -41 25 0 23 -43 57 -89 68 -45 11 -150 18 -216 14z m-1095 -1107 c0 -8 -33 -63 -72 -122 -40 -60 -89 -141 -108 -179 -31 -63 -35 -78 -35 -150 0 -62 5 -89 22 -120 49 -92 147 -154 258 -163 113 -9 115 -8 259 221 70 111 132 209 136 217 5 8 12 11 16 8 3 -4 -51 -111 -122 -239 -125 -224 -131 -232 -173 -252 -95 -42 -286 -1 -375 82 -52 49 -100 136 -111 201 -8 49 13 91 158 315 60 94 114 178 120 187 12 18 27 15 27 -6z m2629 -1422 l31 -6 2 -202 2 -201 6 200 5 200 40 -40 40 -41 -5 -139 -5 -140 -50 -27 c-27 -14 -62 -30 -77 -33 l-28 -7 -3 218 -2 219 -3 -222 c-1 -171 -5 -223 -14 -223 -7 0 -23 -3 -35 -6 l-23 -6 0 231 0 231 44 0 c24 0 58 -3 75 -6z m-129 -228 c0 -224 0 -224 -22 -230 -49 -13 -48 -19 -48 217 0 123 3 227 7 230 3 4 19 7 35 7 l28 0 0 -224z m-80 -10 l0 -223 -46 -7 c-59 -8 -188 -8 -237 0 l-37 7 2 190 3 191 65 12 c36 7 68 13 73 13 4 1 8 -92 9 -206 l3 -208 2 205 c2 112 7 207 11 211 4 3 19 9 35 13 l27 6 2 -217 2 -218 6 220 5 219 25 7 c52 15 50 24 50 -215z m-660 -17 l0 -171 -52 7 c-107 14 -150 52 -164 141 -10 72 38 152 109 177 16 6 17 -6 19 -151 l2 -157 3 150 c2 83 5 156 8 163 2 6 20 12 40 12 l35 0 0 -171z m82 -6 l3 -178 2 178 3 177 120 0 120 0 0 -190 0 -190 -40 0 -40 0 -2 188 -3 187 -2 -182 -3 -183 -27 0 c-15 0 -66 5 -115 11 l-88 12 0 173 0 174 35 0 35 0 2 -177z m958 16 c0 -42 -5 -63 -20 -80 l-19 -24 0 120 1 120 19 -40 c11 -24 19 -62 19 -96z" />
    <path
       id="path6"
       d="M6974 1725 c0 -110 2 -156 3 -103 2 53 2 143 0 200 -1 57 -3 13 -3 -97z" />
    <path
       id="path8"
       d="M6394 1735 c0 -66 1 -92 3 -57 2 34 2 88 0 120 -2 31 -3 3 -3 -63z" />
    <path
       id="path10"
       d="M6724 1725 c0 -99 2 -138 3 -87 2 51 2 132 0 180 -1 48 -3 6 -3 -93z" />
    <path
       id="path12"
       d="M9936 2938 c-9 -24 -121 -338 -250 -698 l-233 -655 -459 -1 c-252 0 -570 -1 -707 -2 l-247 -2 -12 -25 c-8 -19 -8 -28 2 -40 11 -13 99 -15 735 -15 690 0 723 1 739 18 9 11 106 264 215 563 265 727 296 824 273 874 -17 37 -38 30 -56 -17z" />
  </g>
</svg>
